# xmcd CD database file
# Copyright (C) 1993-1998 Ti Kan
#
# Track frame offsets:
#	150
#	14987
#	33245
#	46282
#	62052
#	80242
#	97692
#	110407
#	124310
#	140672
#	153350
#	168967
#	182492
#	194977
#	208875
#	225120
#	237280
#	254355
#
# Disc length: 3596 seconds
#
# Revision: 1
# Processed by: cddbd v1.4b41PL1 Copyright (c) Steve Scherf et al.
# Submitted via: CDValet v3.31 - Copyright (c) 1997 Greg Leichner
#
DISCID=fc0e0a12
DTITLE=Nikos Ignatiadis - The Best Melodies From Greece
DYEAR=1900
DGENRE=
TTITLE0=Ego Ke Sy
TTITLE1=Kokkino Garyfallo
TTITLE2=Alaloum
TTITLE3=San Trello Fortigo
TTITLE4=Eroteftika
TTITLE5=Ola Gia Ton Erota
TTITLE6=Ex Epafis
TTITLE7=To Simadi
TTITLE8=Pseftika
TTITLE9=To Tragoudi Tou Hari
TTITLE10=Ise Theos
TTITLE11=Sto Gyro Tou Thanatou
TTITLE12=Tha Allaxo Taktiki
TTITLE13=Megali Adinamia
TTITLE14=Pote Pote Pote
TTITLE15=Ah Ke Na Ginomoun I Agapi Sou
TTITLE16=Fotia Sta Sinora Tis Gis
TTITLE17=Mono Agapi
EXTD=
EXTT0=
EXTT1=
EXTT2=
EXTT3=
EXTT4=
EXTT5=
EXTT6=
EXTT7=
EXTT8=
EXTT9=
EXTT10=
EXTT11=
EXTT12=
EXTT13=
EXTT14=
EXTT15=
EXTT16=
EXTT17=
PLAYORDER=
